<svg width="355" height="107" viewBox="0 0 355 107" fill="none" xmlns="http://www.w3.org/2000/svg">
<path d="M29.9375 40.2812C29.9375 40.5104 29.875 40.7188 29.75 40.9062C29.6458 41.0729 29.4271 41.2188 29.0938 41.3438C28.7812 41.4479 28.3438 41.5312 27.7812 41.5938C27.2188 41.6562 26.5104 41.6875 25.6562 41.6875C24.3021 41.6875 23.3229 41.6354 22.7188 41.5312C22.1354 41.4271 21.7083 41.2708 21.4375 41.0625C21.1875 40.8542 20.9896 40.6042 20.8438 40.3125L8.625 21.125V40.3125C8.625 40.5417 8.5625 40.7396 8.4375 40.9062C8.3125 41.0729 8.09375 41.2188 7.78125 41.3438C7.46875 41.4479 7.05208 41.5312 6.53125 41.5938C6.01042 41.6562 5.34375 41.6875 4.53125 41.6875C3.73958 41.6875 3.07292 41.6562 2.53125 41.5938C2.01042 41.5312 1.59375 41.4479 1.28125 41.3438C0.96875 41.2188 0.739583 41.0729 0.59375 40.9062C0.46875 40.7396 0.40625 40.5417 0.40625 40.3125V2.21875C0.40625 1.98958 0.46875 1.79167 0.59375 1.625C0.739583 1.45833 0.96875 1.32292 1.28125 1.21875C1.59375 1.11458 2.01042 1.03125 2.53125 0.96875C3.07292 0.90625 3.73958 0.875 4.53125 0.875C5.34375 0.875 6.01042 0.90625 6.53125 0.96875C7.05208 1.03125 7.46875 1.11458 7.78125 1.21875C8.09375 1.32292 8.3125 1.45833 8.4375 1.625C8.5625 1.79167 8.625 1.98958 8.625 2.21875V19.4375L20.4688 2.25C20.6146 1.97917 20.7917 1.76042 21 1.59375C21.2083 1.40625 21.4792 1.26042 21.8125 1.15625C22.1458 1.05208 22.5729 0.979167 23.0938 0.9375C23.6146 0.895833 24.2812 0.875 25.0938 0.875C25.9271 0.875 26.6146 0.90625 27.1562 0.96875C27.6979 1.03125 28.125 1.125 28.4375 1.25C28.7708 1.35417 29 1.48958 29.125 1.65625C29.25 1.82292 29.3125 2.01042 29.3125 2.21875C29.3125 2.57292 29.2188 2.9375 29.0312 3.3125C28.8438 3.6875 28.4896 4.28125 27.9688 5.09375L16.875 19.625L28.9688 37.9062C29.4271 38.7604 29.6979 39.3333 29.7812 39.625C29.8854 39.8958 29.9375 40.1146 29.9375 40.2812ZM43.6562 40.375C43.6562 40.5833 43.5833 40.7708 43.4375 40.9375C43.3125 41.1042 43.0938 41.2396 42.7812 41.3438C42.4688 41.4479 42.0521 41.5312 41.5312 41.5938C41.0104 41.6562 40.3438 41.6875 39.5312 41.6875C38.7396 41.6875 38.0729 41.6562 37.5312 41.5938C37.0104 41.5312 36.5938 41.4479 36.2812 41.3438C35.9688 41.2396 35.7396 41.1042 35.5938 40.9375C35.4688 40.7708 35.4062 40.5833 35.4062 40.375V2.1875C35.4062 1.97917 35.4688 1.79167 35.5938 1.625C35.7396 1.45833 35.9688 1.32292 36.2812 1.21875C36.6146 1.11458 37.0417 1.03125 37.5625 0.96875C38.0833 0.90625 38.7396 0.875 39.5312 0.875C40.3438 0.875 41.0104 0.90625 41.5312 0.96875C42.0521 1.03125 42.4688 1.11458 42.7812 1.21875C43.0938 1.32292 43.3125 1.45833 43.4375 1.625C43.5833 1.79167 43.6562 1.97917 43.6562 2.1875V40.375ZM85.8125 38.625C85.8125 39.1042 85.7292 39.5312 85.5625 39.9062C85.3958 40.2812 85.1667 40.5938 84.875 40.8438C84.6042 41.0938 84.2708 41.2812 83.875 41.4062C83.5 41.5104 83.1146 41.5625 82.7188 41.5625H79.2188C78.4896 41.5625 77.8542 41.4896 77.3125 41.3438C76.7917 41.1979 76.3021 40.9375 75.8438 40.5625C75.4062 40.1667 74.9792 39.6458 74.5625 39C74.1458 38.3333 73.6771 37.4792 73.1562 36.4375L63.0938 17.5312C62.5104 16.4062 61.9167 15.1979 61.3125 13.9062C60.7083 12.5938 60.1667 11.3229 59.6875 10.0938H59.625C59.7083 11.5938 59.7708 13.0938 59.8125 14.5938C59.8542 16.0729 59.875 17.6042 59.875 19.1875V40.3438C59.875 40.5521 59.8125 40.7396 59.6875 40.9062C59.5833 41.0729 59.3854 41.2188 59.0938 41.3438C58.8229 41.4479 58.4479 41.5312 57.9688 41.5938C57.4896 41.6562 56.875 41.6875 56.125 41.6875C55.3958 41.6875 54.7917 41.6562 54.3125 41.5938C53.8333 41.5312 53.4583 41.4479 53.1875 41.3438C52.9167 41.2188 52.7292 41.0729 52.625 40.9062C52.5208 40.7396 52.4688 40.5521 52.4688 40.3438V4C52.4688 3.02083 52.75 2.29167 53.3125 1.8125C53.8958 1.3125 54.6042 1.0625 55.4375 1.0625H59.8438C60.6354 1.0625 61.3021 1.13542 61.8438 1.28125C62.3854 1.40625 62.8646 1.625 63.2812 1.9375C63.7188 2.25 64.125 2.6875 64.5 3.25C64.875 3.79167 65.2604 4.46875 65.6562 5.28125L73.5312 20.0625C73.9896 20.9583 74.4375 21.8438 74.875 22.7188C75.3333 23.5729 75.7708 24.4375 76.1875 25.3125C76.6042 26.1667 77.0104 27.0104 77.4062 27.8438C77.8021 28.6771 78.1875 29.5104 78.5625 30.3438H78.5938C78.5312 28.8854 78.4792 27.3646 78.4375 25.7812C78.4167 24.1979 78.4062 22.6875 78.4062 21.25V2.28125C78.4062 2.07292 78.4688 1.88542 78.5938 1.71875C78.7188 1.55208 78.9271 1.40625 79.2188 1.28125C79.5104 1.15625 79.8958 1.07292 80.375 1.03125C80.8542 0.96875 81.4688 0.9375 82.2188 0.9375C82.9271 0.9375 83.5208 0.96875 84 1.03125C84.4792 1.07292 84.8438 1.15625 85.0938 1.28125C85.3646 1.40625 85.5521 1.55208 85.6562 1.71875C85.7604 1.88542 85.8125 2.07292 85.8125 2.28125V38.625ZM128.25 20.6875C128.25 24.3958 127.76 27.5729 126.781 30.2188C125.823 32.8438 124.438 34.9896 122.625 36.6562C120.812 38.3229 118.604 39.5521 116 40.3438C113.417 41.1146 110.333 41.5 106.75 41.5H97.0938C96.4062 41.5 95.8229 41.3021 95.3438 40.9062C94.8854 40.4896 94.6562 39.8229 94.6562 38.9062V3.65625C94.6562 2.73958 94.8854 2.08333 95.3438 1.6875C95.8229 1.27083 96.4062 1.0625 97.0938 1.0625H107.469C111.073 1.0625 114.125 1.48958 116.625 2.34375C119.146 3.17708 121.26 4.42708 122.969 6.09375C124.698 7.73958 126.01 9.78125 126.906 12.2188C127.802 14.6562 128.25 17.4792 128.25 20.6875ZM119.75 20.9688C119.75 19.0521 119.521 17.2708 119.062 15.625C118.625 13.9792 117.906 12.5521 116.906 11.3438C115.927 10.1354 114.656 9.19792 113.094 8.53125C111.552 7.84375 109.521 7.5 107 7.5H102.844V35H107.125C109.375 35 111.271 34.7083 112.812 34.125C114.354 33.5417 115.635 32.6667 116.656 31.5C117.698 30.3125 118.469 28.8438 118.969 27.0938C119.49 25.3438 119.75 23.3021 119.75 20.9688ZM157.25 38.0625C157.25 38.6875 157.219 39.2188 157.156 39.6562C157.115 40.0729 157.042 40.4271 156.938 40.7188C156.833 40.9896 156.698 41.1875 156.531 41.3125C156.385 41.4375 156.208 41.5 156 41.5H137.469C136.781 41.5 136.198 41.3021 135.719 40.9062C135.26 40.4896 135.031 39.8229 135.031 38.9062V2.1875C135.031 1.97917 135.094 1.79167 135.219 1.625C135.365 1.45833 135.594 1.32292 135.906 1.21875C136.219 1.11458 136.635 1.03125 137.156 0.96875C137.698 0.90625 138.365 0.875 139.156 0.875C139.969 0.875 140.635 0.90625 141.156 0.96875C141.677 1.03125 142.094 1.11458 142.406 1.21875C142.719 1.32292 142.938 1.45833 143.062 1.625C143.208 1.79167 143.281 1.97917 143.281 2.1875V34.7188H156C156.208 34.7188 156.385 34.7812 156.531 34.9062C156.698 35.0104 156.833 35.1979 156.938 35.4688C157.042 35.7188 157.115 36.0625 157.156 36.5C157.219 36.9167 157.25 37.4375 157.25 38.0625ZM186.062 38.2812C186.062 38.8854 186.031 39.3958 185.969 39.8125C185.927 40.2083 185.854 40.5312 185.75 40.7812C185.646 41.0312 185.51 41.2188 185.344 41.3438C185.198 41.4479 185.031 41.5 184.844 41.5H164.531C163.844 41.5 163.26 41.3021 162.781 40.9062C162.323 40.4896 162.094 39.8229 162.094 38.9062V3.65625C162.094 2.73958 162.323 2.08333 162.781 1.6875C163.26 1.27083 163.844 1.0625 164.531 1.0625H184.719C184.906 1.0625 185.073 1.11458 185.219 1.21875C185.365 1.32292 185.49 1.51042 185.594 1.78125C185.698 2.03125 185.771 2.36458 185.812 2.78125C185.875 3.17708 185.906 3.6875 185.906 4.3125C185.906 4.89583 185.875 5.39583 185.812 5.8125C185.771 6.20833 185.698 6.53125 185.594 6.78125C185.49 7.03125 185.365 7.21875 185.219 7.34375C185.073 7.44792 184.906 7.5 184.719 7.5H170.281V17.375H182.5C182.688 17.375 182.854 17.4375 183 17.5625C183.167 17.6667 183.302 17.8438 183.406 18.0938C183.51 18.3229 183.583 18.6458 183.625 19.0625C183.688 19.4583 183.719 19.9479 183.719 20.5312C183.719 21.1354 183.688 21.6354 183.625 22.0312C183.583 22.4271 183.51 22.75 183.406 23C183.302 23.2292 183.167 23.3958 183 23.5C182.854 23.6042 182.688 23.6562 182.5 23.6562H170.281V35.0625H184.844C185.031 35.0625 185.198 35.125 185.344 35.25C185.51 35.3542 185.646 35.5312 185.75 35.7812C185.854 36.0312 185.927 36.3646 185.969 36.7812C186.031 37.1771 186.062 37.6771 186.062 38.2812ZM224.844 7.34375C224.844 7.94792 224.812 8.46875 224.75 8.90625C224.708 9.34375 224.635 9.69792 224.531 9.96875C224.448 10.2188 224.333 10.3958 224.188 10.5C224.062 10.6042 223.906 10.6562 223.719 10.6562C223.448 10.6562 223.01 10.4688 222.406 10.0938C221.802 9.71875 221 9.3125 220 8.875C219 8.4375 217.802 8.03125 216.406 7.65625C215.031 7.28125 213.427 7.09375 211.594 7.09375C209.635 7.09375 207.865 7.4375 206.281 8.125C204.698 8.79167 203.344 9.75 202.219 11C201.094 12.2292 200.229 13.7188 199.625 15.4688C199.021 17.1979 198.719 19.1146 198.719 21.2188C198.719 23.5312 199.021 25.5729 199.625 27.3438C200.25 29.0938 201.115 30.5625 202.219 31.75C203.323 32.9375 204.646 33.8333 206.188 34.4375C207.75 35.0417 209.469 35.3438 211.344 35.3438C212.26 35.3438 213.167 35.2396 214.062 35.0312C214.958 34.8229 215.792 34.5104 216.562 34.0938V24.7188H208.906C208.531 24.7188 208.24 24.4896 208.031 24.0312C207.823 23.5521 207.719 22.75 207.719 21.625C207.719 21.0417 207.74 20.5521 207.781 20.1562C207.844 19.7604 207.927 19.4479 208.031 19.2188C208.135 18.9688 208.26 18.7917 208.406 18.6875C208.552 18.5625 208.719 18.5 208.906 18.5H222.562C222.896 18.5 223.188 18.5625 223.438 18.6875C223.708 18.7917 223.938 18.9583 224.125 19.1875C224.333 19.4167 224.49 19.6979 224.594 20.0312C224.698 20.3438 224.75 20.7083 224.75 21.125V37.2188C224.75 37.8438 224.635 38.3958 224.406 38.875C224.198 39.3333 223.75 39.6979 223.062 39.9688C222.396 40.2396 221.562 40.5208 220.562 40.8125C219.562 41.1042 218.521 41.3542 217.438 41.5625C216.375 41.7708 215.292 41.9271 214.188 42.0312C213.104 42.1354 212.01 42.1875 210.906 42.1875C207.677 42.1875 204.781 41.7292 202.219 40.8125C199.677 39.875 197.521 38.5312 195.75 36.7812C193.979 35.0104 192.625 32.8646 191.688 30.3438C190.75 27.8021 190.281 24.9271 190.281 21.7188C190.281 18.4062 190.781 15.4375 191.781 12.8125C192.781 10.1667 194.198 7.92708 196.031 6.09375C197.865 4.23958 200.073 2.82292 202.656 1.84375C205.26 0.864583 208.156 0.375 211.344 0.375C213.094 0.375 214.688 0.5 216.125 0.75C217.562 0.979167 218.812 1.27083 219.875 1.625C220.958 1.95833 221.854 2.32292 222.562 2.71875C223.271 3.11458 223.76 3.45833 224.031 3.75C224.323 4.04167 224.531 4.45833 224.656 5C224.781 5.52083 224.844 6.30208 224.844 7.34375ZM266.344 38.4375C266.594 39.1875 266.75 39.7812 266.812 40.2188C266.875 40.6562 266.792 40.9896 266.562 41.2188C266.333 41.4271 265.927 41.5521 265.344 41.5938C264.76 41.6562 263.958 41.6875 262.938 41.6875C261.875 41.6875 261.042 41.6667 260.438 41.625C259.854 41.6042 259.406 41.5521 259.094 41.4688C258.781 41.3646 258.562 41.2292 258.438 41.0625C258.312 40.8958 258.208 40.6771 258.125 40.4062L255.406 32.2812H240.219L237.656 40.1875C237.573 40.4792 237.458 40.7292 237.312 40.9375C237.188 41.125 236.969 41.2812 236.656 41.4062C236.365 41.5104 235.938 41.5833 235.375 41.625C234.833 41.6667 234.115 41.6875 233.219 41.6875C232.26 41.6875 231.51 41.6562 230.969 41.5938C230.427 41.5312 230.052 41.3854 229.844 41.1562C229.635 40.9062 229.562 40.5625 229.625 40.125C229.688 39.6875 229.844 39.1042 230.094 38.375L242.562 2.5C242.688 2.14583 242.833 1.86458 243 1.65625C243.167 1.42708 243.427 1.26042 243.781 1.15625C244.156 1.03125 244.667 0.958333 245.312 0.9375C245.958 0.895833 246.812 0.875 247.875 0.875C249.104 0.875 250.083 0.895833 250.812 0.9375C251.542 0.958333 252.104 1.03125 252.5 1.15625C252.917 1.26042 253.208 1.42708 253.375 1.65625C253.562 1.88542 253.719 2.19792 253.844 2.59375L266.344 38.4375ZM247.781 8.78125H247.75L242.031 25.9688H253.5L247.781 8.78125ZM293.938 4.4375C293.938 5.04167 293.906 5.5625 293.844 6C293.802 6.41667 293.729 6.76042 293.625 7.03125C293.521 7.28125 293.385 7.46875 293.219 7.59375C293.073 7.71875 292.906 7.78125 292.719 7.78125H282.594V40.375C282.594 40.5833 282.521 40.7708 282.375 40.9375C282.25 41.1042 282.031 41.2396 281.719 41.3438C281.406 41.4479 280.979 41.5312 280.438 41.5938C279.917 41.6562 279.26 41.6875 278.469 41.6875C277.677 41.6875 277.01 41.6562 276.469 41.5938C275.948 41.5312 275.531 41.4479 275.219 41.3438C274.906 41.2396 274.677 41.1042 274.531 40.9375C274.406 40.7708 274.344 40.5833 274.344 40.375V7.78125H264.219C264.01 7.78125 263.833 7.71875 263.688 7.59375C263.542 7.46875 263.417 7.28125 263.312 7.03125C263.208 6.76042 263.125 6.41667 263.062 6C263.021 5.5625 263 5.04167 263 4.4375C263 3.8125 263.021 3.28125 263.062 2.84375C263.125 2.40625 263.208 2.0625 263.312 1.8125C263.417 1.54167 263.542 1.35417 263.688 1.25C263.833 1.125 264.01 1.0625 264.219 1.0625H292.719C292.906 1.0625 293.073 1.125 293.219 1.25C293.385 1.35417 293.521 1.54167 293.625 1.8125C293.729 2.0625 293.802 2.40625 293.844 2.84375C293.906 3.28125 293.938 3.8125 293.938 4.4375ZM322.688 38.2812C322.688 38.8854 322.656 39.3958 322.594 39.8125C322.552 40.2083 322.479 40.5312 322.375 40.7812C322.271 41.0312 322.135 41.2188 321.969 41.3438C321.823 41.4479 321.656 41.5 321.469 41.5H301.156C300.469 41.5 299.885 41.3021 299.406 40.9062C298.948 40.4896 298.719 39.8229 298.719 38.9062V3.65625C298.719 2.73958 298.948 2.08333 299.406 1.6875C299.885 1.27083 300.469 1.0625 301.156 1.0625H321.344C321.531 1.0625 321.698 1.11458 321.844 1.21875C321.99 1.32292 322.115 1.51042 322.219 1.78125C322.323 2.03125 322.396 2.36458 322.438 2.78125C322.5 3.17708 322.531 3.6875 322.531 4.3125C322.531 4.89583 322.5 5.39583 322.438 5.8125C322.396 6.20833 322.323 6.53125 322.219 6.78125C322.115 7.03125 321.99 7.21875 321.844 7.34375C321.698 7.44792 321.531 7.5 321.344 7.5H306.906V17.375H319.125C319.312 17.375 319.479 17.4375 319.625 17.5625C319.792 17.6667 319.927 17.8438 320.031 18.0938C320.135 18.3229 320.208 18.6458 320.25 19.0625C320.312 19.4583 320.344 19.9479 320.344 20.5312C320.344 21.1354 320.312 21.6354 320.25 22.0312C320.208 22.4271 320.135 22.75 320.031 23C319.927 23.2292 319.792 23.3958 319.625 23.5C319.479 23.6042 319.312 23.6562 319.125 23.6562H306.906V35.0625H321.469C321.656 35.0625 321.823 35.125 321.969 35.25C322.135 35.3542 322.271 35.5312 322.375 35.7812C322.479 36.0312 322.552 36.3646 322.594 36.7812C322.656 37.1771 322.688 37.6771 322.688 38.2812ZM23.0938 68.4375C23.0938 69.0625 23.0625 69.5938 23 70.0312C22.9583 70.4479 22.875 70.7812 22.75 71.0312C22.6458 71.2812 22.5208 71.4688 22.375 71.5938C22.2292 71.7188 22.0625 71.7812 21.875 71.7812H8.65625V82.6562H21.0625C21.25 82.6562 21.4167 82.7083 21.5625 82.8125C21.7083 82.9167 21.8333 83.0938 21.9375 83.3438C22.0625 83.5938 22.1458 83.9271 22.1875 84.3438C22.25 84.7604 22.2812 85.2812 22.2812 85.9062C22.2812 86.5312 22.25 87.0521 22.1875 87.4688C22.1458 87.8854 22.0625 88.2292 21.9375 88.5C21.8333 88.7708 21.7083 88.9688 21.5625 89.0938C21.4167 89.1979 21.25 89.25 21.0625 89.25H8.65625V104.312C8.65625 104.542 8.59375 104.74 8.46875 104.906C8.34375 105.073 8.11458 105.219 7.78125 105.344C7.46875 105.448 7.05208 105.531 6.53125 105.594C6.01042 105.656 5.34375 105.688 4.53125 105.688C3.73958 105.688 3.07292 105.656 2.53125 105.594C2.01042 105.531 1.59375 105.448 1.28125 105.344C0.96875 105.219 0.739583 105.073 0.59375 104.906C0.46875 104.74 0.40625 104.542 0.40625 104.312V67.6562C0.40625 66.7396 0.635417 66.0833 1.09375 65.6875C1.57292 65.2708 2.15625 65.0625 2.84375 65.0625H21.875C22.0625 65.0625 22.2292 65.125 22.375 65.25C22.5208 65.3542 22.6458 65.5417 22.75 65.8125C22.875 66.0625 22.9583 66.4062 23 66.8438C23.0625 67.2812 23.0938 67.8125 23.0938 68.4375ZM65.6562 84.8125C65.6562 88.1667 65.2396 91.1667 64.4062 93.8125C63.5729 96.4583 62.3333 98.7083 60.6875 100.562C59.0417 102.396 57 103.802 54.5625 104.781C52.1458 105.74 49.3438 106.219 46.1562 106.219C43.0104 106.219 40.2604 105.812 37.9062 105C35.5729 104.167 33.625 102.906 32.0625 101.219C30.5 99.5312 29.3229 97.3854 28.5312 94.7812C27.7604 92.1771 27.375 89.0938 27.375 85.5312C27.375 82.2604 27.7917 79.3229 28.625 76.7188C29.4583 74.0938 30.6979 71.8646 32.3438 70.0312C33.9896 68.1979 36.0208 66.7917 38.4375 65.8125C40.875 64.8333 43.6979 64.3438 46.9062 64.3438C49.9688 64.3438 52.6667 64.75 55 65.5625C57.3542 66.375 59.3125 67.625 60.875 69.3125C62.4583 71 63.6458 73.1354 64.4375 75.7188C65.25 78.2812 65.6562 81.3125 65.6562 84.8125ZM57.0312 85.25C57.0312 83.125 56.8646 81.1979 56.5312 79.4688C56.1979 77.7188 55.625 76.2292 54.8125 75C54.0208 73.75 52.9583 72.7917 51.625 72.125C50.2917 71.4375 48.625 71.0938 46.625 71.0938C44.6042 71.0938 42.9167 71.4792 41.5625 72.25C40.2083 73 39.1146 74.0104 38.2812 75.2812C37.4479 76.5521 36.8542 78.0417 36.5 79.75C36.1667 81.4375 36 83.2292 36 85.125C36 87.3333 36.1667 89.3229 36.5 91.0938C36.8333 92.8438 37.3958 94.3438 38.1875 95.5938C38.9792 96.8438 40.0417 97.8021 41.375 98.4688C42.7083 99.1146 44.3854 99.4375 46.4062 99.4375C48.4271 99.4375 50.1146 99.0625 51.4688 98.3125C52.8229 97.5625 53.9167 96.5417 54.75 95.25C55.5833 93.9583 56.1667 92.4583 56.5 90.75C56.8542 89.0208 57.0312 87.1875 57.0312 85.25ZM105.594 90.4375C105.594 92.9167 105.229 95.1354 104.5 97.0938C103.771 99.0521 102.698 100.708 101.281 102.062C99.8646 103.417 98.1146 104.448 96.0312 105.156C93.9479 105.865 91.5521 106.219 88.8438 106.219C86.3021 106.219 84.0208 105.906 82 105.281C79.9792 104.635 78.2708 103.667 76.875 102.375C75.4792 101.083 74.4062 99.4792 73.6562 97.5625C72.9271 95.625 72.5625 93.3646 72.5625 90.7812V66.1875C72.5625 65.9792 72.625 65.7917 72.75 65.625C72.875 65.4583 73.0938 65.3229 73.4062 65.2188C73.7396 65.1146 74.1667 65.0312 74.6875 64.9688C75.2083 64.9062 75.875 64.875 76.6875 64.875C77.4792 64.875 78.1354 64.9062 78.6562 64.9688C79.1771 65.0312 79.5938 65.1146 79.9062 65.2188C80.2188 65.3229 80.4375 65.4583 80.5625 65.625C80.7083 65.7917 80.7812 65.9792 80.7812 66.1875V90.0625C80.7812 91.6667 80.9792 93.0625 81.375 94.25C81.7708 95.4167 82.3333 96.3854 83.0625 97.1562C83.8125 97.9271 84.6979 98.5104 85.7188 98.9062C86.7604 99.2812 87.9167 99.4688 89.1875 99.4688C90.4792 99.4688 91.6354 99.2708 92.6562 98.875C93.6771 98.4792 94.5417 97.9062 95.25 97.1562C95.9583 96.3854 96.5 95.4479 96.875 94.3438C97.2708 93.2188 97.4688 91.9479 97.4688 90.5312V66.1875C97.4688 65.9792 97.5312 65.7917 97.6562 65.625C97.7812 65.4583 98 65.3229 98.3125 65.2188C98.625 65.1146 99.0417 65.0312 99.5625 64.9688C100.104 64.9062 100.771 64.875 101.562 64.875C102.354 64.875 103 64.9062 103.5 64.9688C104.021 65.0312 104.438 65.1146 104.75 65.2188C105.062 65.3229 105.281 65.4583 105.406 65.625C105.531 65.7917 105.594 65.9792 105.594 66.1875V90.4375ZM147.75 102.625C147.75 103.104 147.667 103.531 147.5 103.906C147.333 104.281 147.104 104.594 146.812 104.844C146.542 105.094 146.208 105.281 145.812 105.406C145.438 105.51 145.052 105.562 144.656 105.562H141.156C140.427 105.562 139.792 105.49 139.25 105.344C138.729 105.198 138.24 104.938 137.781 104.562C137.344 104.167 136.917 103.646 136.5 103C136.083 102.333 135.615 101.479 135.094 100.438L125.031 81.5312C124.448 80.4062 123.854 79.1979 123.25 77.9062C122.646 76.5938 122.104 75.3229 121.625 74.0938H121.562C121.646 75.5938 121.708 77.0938 121.75 78.5938C121.792 80.0729 121.812 81.6042 121.812 83.1875V104.344C121.812 104.552 121.75 104.74 121.625 104.906C121.521 105.073 121.323 105.219 121.031 105.344C120.76 105.448 120.385 105.531 119.906 105.594C119.427 105.656 118.812 105.688 118.062 105.688C117.333 105.688 116.729 105.656 116.25 105.594C115.771 105.531 115.396 105.448 115.125 105.344C114.854 105.219 114.667 105.073 114.562 104.906C114.458 104.74 114.406 104.552 114.406 104.344V68C114.406 67.0208 114.688 66.2917 115.25 65.8125C115.833 65.3125 116.542 65.0625 117.375 65.0625H121.781C122.573 65.0625 123.24 65.1354 123.781 65.2812C124.323 65.4062 124.802 65.625 125.219 65.9375C125.656 66.25 126.062 66.6875 126.438 67.25C126.812 67.7917 127.198 68.4688 127.594 69.2812L135.469 84.0625C135.927 84.9583 136.375 85.8438 136.812 86.7188C137.271 87.5729 137.708 88.4375 138.125 89.3125C138.542 90.1667 138.948 91.0104 139.344 91.8438C139.74 92.6771 140.125 93.5104 140.5 94.3438H140.531C140.469 92.8854 140.417 91.3646 140.375 89.7812C140.354 88.1979 140.344 86.6875 140.344 85.25V66.2812C140.344 66.0729 140.406 65.8854 140.531 65.7188C140.656 65.5521 140.865 65.4062 141.156 65.2812C141.448 65.1562 141.833 65.0729 142.312 65.0312C142.792 64.9688 143.406 64.9375 144.156 64.9375C144.865 64.9375 145.458 64.9688 145.938 65.0312C146.417 65.0729 146.781 65.1562 147.031 65.2812C147.302 65.4062 147.49 65.5521 147.594 65.7188C147.698 65.8854 147.75 66.0729 147.75 66.2812V102.625ZM190.188 84.6875C190.188 88.3958 189.698 91.5729 188.719 94.2188C187.76 96.8438 186.375 98.9896 184.562 100.656C182.75 102.323 180.542 103.552 177.938 104.344C175.354 105.115 172.271 105.5 168.688 105.5H159.031C158.344 105.5 157.76 105.302 157.281 104.906C156.823 104.49 156.594 103.823 156.594 102.906V67.6562C156.594 66.7396 156.823 66.0833 157.281 65.6875C157.76 65.2708 158.344 65.0625 159.031 65.0625H169.406C173.01 65.0625 176.062 65.4896 178.562 66.3438C181.083 67.1771 183.198 68.4271 184.906 70.0938C186.635 71.7396 187.948 73.7812 188.844 76.2188C189.74 78.6562 190.188 81.4792 190.188 84.6875ZM181.688 84.9688C181.688 83.0521 181.458 81.2708 181 79.625C180.562 77.9792 179.844 76.5521 178.844 75.3438C177.865 74.1354 176.594 73.1979 175.031 72.5312C173.49 71.8438 171.458 71.5 168.938 71.5H164.781V99H169.062C171.312 99 173.208 98.7083 174.75 98.125C176.292 97.5417 177.573 96.6667 178.594 95.5C179.635 94.3125 180.406 92.8438 180.906 91.0938C181.427 89.3438 181.688 87.3021 181.688 84.9688ZM228.594 102.438C228.844 103.188 229 103.781 229.062 104.219C229.125 104.656 229.042 104.99 228.812 105.219C228.583 105.427 228.177 105.552 227.594 105.594C227.01 105.656 226.208 105.688 225.188 105.688C224.125 105.688 223.292 105.667 222.688 105.625C222.104 105.604 221.656 105.552 221.344 105.469C221.031 105.365 220.812 105.229 220.688 105.062C220.562 104.896 220.458 104.677 220.375 104.406L217.656 96.2812H202.469L199.906 104.188C199.823 104.479 199.708 104.729 199.562 104.938C199.438 105.125 199.219 105.281 198.906 105.406C198.615 105.51 198.188 105.583 197.625 105.625C197.083 105.667 196.365 105.688 195.469 105.688C194.51 105.688 193.76 105.656 193.219 105.594C192.677 105.531 192.302 105.385 192.094 105.156C191.885 104.906 191.812 104.562 191.875 104.125C191.938 103.688 192.094 103.104 192.344 102.375L204.812 66.5C204.938 66.1458 205.083 65.8646 205.25 65.6562C205.417 65.4271 205.677 65.2604 206.031 65.1562C206.406 65.0312 206.917 64.9583 207.562 64.9375C208.208 64.8958 209.062 64.875 210.125 64.875C211.354 64.875 212.333 64.8958 213.062 64.9375C213.792 64.9583 214.354 65.0312 214.75 65.1562C215.167 65.2604 215.458 65.4271 215.625 65.6562C215.812 65.8854 215.969 66.1979 216.094 66.5938L228.594 102.438ZM210.031 72.7812H210L204.281 89.9688H215.75L210.031 72.7812ZM256.188 68.4375C256.188 69.0417 256.156 69.5625 256.094 70C256.052 70.4167 255.979 70.7604 255.875 71.0312C255.771 71.2812 255.635 71.4688 255.469 71.5938C255.323 71.7188 255.156 71.7812 254.969 71.7812H244.844V104.375C244.844 104.583 244.771 104.771 244.625 104.938C244.5 105.104 244.281 105.24 243.969 105.344C243.656 105.448 243.229 105.531 242.688 105.594C242.167 105.656 241.51 105.688 240.719 105.688C239.927 105.688 239.26 105.656 238.719 105.594C238.198 105.531 237.781 105.448 237.469 105.344C237.156 105.24 236.927 105.104 236.781 104.938C236.656 104.771 236.594 104.583 236.594 104.375V71.7812H226.469C226.26 71.7812 226.083 71.7188 225.938 71.5938C225.792 71.4688 225.667 71.2812 225.562 71.0312C225.458 70.7604 225.375 70.4167 225.312 70C225.271 69.5625 225.25 69.0417 225.25 68.4375C225.25 67.8125 225.271 67.2812 225.312 66.8438C225.375 66.4062 225.458 66.0625 225.562 65.8125C225.667 65.5417 225.792 65.3542 225.938 65.25C226.083 65.125 226.26 65.0625 226.469 65.0625H254.969C255.156 65.0625 255.323 65.125 255.469 65.25C255.635 65.3542 255.771 65.5417 255.875 65.8125C255.979 66.0625 256.052 66.4062 256.094 66.8438C256.156 67.2812 256.188 67.8125 256.188 68.4375ZM269.219 104.375C269.219 104.583 269.146 104.771 269 104.938C268.875 105.104 268.656 105.24 268.344 105.344C268.031 105.448 267.615 105.531 267.094 105.594C266.573 105.656 265.906 105.688 265.094 105.688C264.302 105.688 263.635 105.656 263.094 105.594C262.573 105.531 262.156 105.448 261.844 105.344C261.531 105.24 261.302 105.104 261.156 104.938C261.031 104.771 260.969 104.583 260.969 104.375V66.1875C260.969 65.9792 261.031 65.7917 261.156 65.625C261.302 65.4583 261.531 65.3229 261.844 65.2188C262.177 65.1146 262.604 65.0312 263.125 64.9688C263.646 64.9062 264.302 64.875 265.094 64.875C265.906 64.875 266.573 64.9062 267.094 64.9688C267.615 65.0312 268.031 65.1146 268.344 65.2188C268.656 65.3229 268.875 65.4583 269 65.625C269.146 65.7917 269.219 65.9792 269.219 66.1875V104.375ZM314.406 84.8125C314.406 88.1667 313.99 91.1667 313.156 93.8125C312.323 96.4583 311.083 98.7083 309.438 100.562C307.792 102.396 305.75 103.802 303.312 104.781C300.896 105.74 298.094 106.219 294.906 106.219C291.76 106.219 289.01 105.812 286.656 105C284.323 104.167 282.375 102.906 280.812 101.219C279.25 99.5312 278.073 97.3854 277.281 94.7812C276.51 92.1771 276.125 89.0938 276.125 85.5312C276.125 82.2604 276.542 79.3229 277.375 76.7188C278.208 74.0938 279.448 71.8646 281.094 70.0312C282.74 68.1979 284.771 66.7917 287.188 65.8125C289.625 64.8333 292.448 64.3438 295.656 64.3438C298.719 64.3438 301.417 64.75 303.75 65.5625C306.104 66.375 308.062 67.625 309.625 69.3125C311.208 71 312.396 73.1354 313.188 75.7188C314 78.2812 314.406 81.3125 314.406 84.8125ZM305.781 85.25C305.781 83.125 305.615 81.1979 305.281 79.4688C304.948 77.7188 304.375 76.2292 303.562 75C302.771 73.75 301.708 72.7917 300.375 72.125C299.042 71.4375 297.375 71.0938 295.375 71.0938C293.354 71.0938 291.667 71.4792 290.312 72.25C288.958 73 287.865 74.0104 287.031 75.2812C286.198 76.5521 285.604 78.0417 285.25 79.75C284.917 81.4375 284.75 83.2292 284.75 85.125C284.75 87.3333 284.917 89.3229 285.25 91.0938C285.583 92.8438 286.146 94.3438 286.938 95.5938C287.729 96.8438 288.792 97.8021 290.125 98.4688C291.458 99.1146 293.135 99.4375 295.156 99.4375C297.177 99.4375 298.865 99.0625 300.219 98.3125C301.573 97.5625 302.667 96.5417 303.5 95.25C304.333 93.9583 304.917 92.4583 305.25 90.75C305.604 89.0208 305.781 87.1875 305.781 85.25ZM354.688 102.625C354.688 103.104 354.604 103.531 354.438 103.906C354.271 104.281 354.042 104.594 353.75 104.844C353.479 105.094 353.146 105.281 352.75 105.406C352.375 105.51 351.99 105.562 351.594 105.562H348.094C347.365 105.562 346.729 105.49 346.188 105.344C345.667 105.198 345.177 104.938 344.719 104.562C344.281 104.167 343.854 103.646 343.438 103C343.021 102.333 342.552 101.479 342.031 100.438L331.969 81.5312C331.385 80.4062 330.792 79.1979 330.188 77.9062C329.583 76.5938 329.042 75.3229 328.562 74.0938H328.5C328.583 75.5938 328.646 77.0938 328.688 78.5938C328.729 80.0729 328.75 81.6042 328.75 83.1875V104.344C328.75 104.552 328.688 104.74 328.562 104.906C328.458 105.073 328.26 105.219 327.969 105.344C327.698 105.448 327.323 105.531 326.844 105.594C326.365 105.656 325.75 105.688 325 105.688C324.271 105.688 323.667 105.656 323.188 105.594C322.708 105.531 322.333 105.448 322.062 105.344C321.792 105.219 321.604 105.073 321.5 104.906C321.396 104.74 321.344 104.552 321.344 104.344V68C321.344 67.0208 321.625 66.2917 322.188 65.8125C322.771 65.3125 323.479 65.0625 324.312 65.0625H328.719C329.51 65.0625 330.177 65.1354 330.719 65.2812C331.26 65.4062 331.74 65.625 332.156 65.9375C332.594 66.25 333 66.6875 333.375 67.25C333.75 67.7917 334.135 68.4688 334.531 69.2812L342.406 84.0625C342.865 84.9583 343.312 85.8438 343.75 86.7188C344.208 87.5729 344.646 88.4375 345.062 89.3125C345.479 90.1667 345.885 91.0104 346.281 91.8438C346.677 92.6771 347.062 93.5104 347.438 94.3438H347.469C347.406 92.8854 347.354 91.3646 347.312 89.7812C347.292 88.1979 347.281 86.6875 347.281 85.25V66.2812C347.281 66.0729 347.344 65.8854 347.469 65.7188C347.594 65.5521 347.802 65.4062 348.094 65.2812C348.385 65.1562 348.771 65.0729 349.25 65.0312C349.729 64.9688 350.344 64.9375 351.094 64.9375C351.802 64.9375 352.396 64.9688 352.875 65.0312C353.354 65.0729 353.719 65.1562 353.969 65.2812C354.24 65.4062 354.427 65.5521 354.531 65.7188C354.635 65.8854 354.688 66.0729 354.688 66.2812V102.625Z" fill="#F1F1F1"/>
</svg>
