<svg width="18" height="17" viewBox="0 0 18 17" fill="none" xmlns="http://www.w3.org/2000/svg">
<path id="Vector" d="M9.00033 11.6667L12.3337 8.33333L9.00033 5L7.83366 6.16667L9.16699 7.5H5.66699V9.16667H9.16699L7.83366 10.5L9.00033 11.6667ZM9.00033 16.6667C7.84755 16.6667 6.76421 16.4478 5.75033 16.01C4.73644 15.5722 3.85449 14.9786 3.10449 14.2292C2.35449 13.4792 1.76088 12.5972 1.32366 11.5833C0.886437 10.5694 0.667548 9.48611 0.666992 8.33333C0.666992 7.18056 0.885881 6.09722 1.32366 5.08333C1.76144 4.06944 2.35505 3.1875 3.10449 2.4375C3.85449 1.6875 4.73644 1.09389 5.75033 0.656667C6.76421 0.219445 7.84755 0.000555556 9.00033 0C10.1531 0 11.2364 0.218889 12.2503 0.656667C13.2642 1.09444 14.1462 1.68806 14.8962 2.4375C15.6462 3.1875 16.24 4.06944 16.6778 5.08333C17.1156 6.09722 17.3342 7.18056 17.3337 8.33333C17.3337 9.48611 17.1148 10.5694 16.677 11.5833C16.2392 12.5972 15.6456 13.4792 14.8962 14.2292C14.1462 14.9792 13.2642 15.5731 12.2503 16.0108C11.2364 16.4486 10.1531 16.6672 9.00033 16.6667Z" fill="#333333"/>
</svg>
